<?xml version="1.0" encoding="UTF-8"?>
<svg width="1214px" height="889px" viewBox="0 0 1214 889" version="1.1" xmlns="http://www.w3.org/2000/svg" xmlns:xlink="http://www.w3.org/1999/xlink">
    <!-- Generator: Sketch 48.2 (47327) - http://www.bohemiancoding.com/sketch -->
    <title>Kelvin Thermometers</title>
    <desc>Created with Sketch.</desc>
    <defs></defs>
    <g id="Kelvin-thermometers" stroke="none" stroke-width="1" fill="none" fill-rule="evenodd">
        <g id="Kelvin-Thermometers">
            <polygon id="Page-1" fill="#204056" points="-4 889 1217 889 1217 0 -4 0"></polygon>
            <g id="Group" transform="translate(256.000000, 134.000000)">
                <path d="M639.537915,597.736954 C639.537915,599.127016 639.840831,600.264593 640.446673,601.149719 C641.052515,602.034844 641.919688,602.4774 643.048217,602.4774 C644.11735,602.4774 644.954825,602.028903 645.560667,601.131897 C646.166509,600.234891 646.469426,599.127016 646.469426,597.808239 C646.469426,596.430057 646.16057,595.28357 645.542848,594.368742 C644.925127,593.453915 644.069834,592.996508 642.976942,592.996508 C641.919688,592.996508 641.082213,593.450945 640.464492,594.359832 C639.846771,595.268719 639.537915,596.394415 639.537915,597.736954 Z M643.01258,590.911425 C644.770709,590.911425 646.154622,591.558923 647.164359,592.853938 C648.174095,594.148954 648.678956,595.78849 648.678956,597.772596 C648.678956,599.72106 648.177065,601.333865 647.173268,602.611059 C646.169471,603.888253 644.794468,604.526841 643.048217,604.526841 C641.218812,604.526841 639.805202,603.888253 638.807344,602.611059 C637.809487,601.333865 637.310565,599.691358 637.310565,597.68349 C637.310565,595.735027 637.821366,594.119252 638.842982,592.836117 C639.864598,591.552982 641.25445,590.911425 643.01258,590.911425 Z M657.056878,619.247172 L653.974227,619.247172 L653.974227,592.889581 L668.603457,592.889581 L668.478725,595.616228 L657.056878,595.616228 L657.056878,604.865444 L667.944162,604.865444 L667.944162,607.485164 L657.056878,607.485164 L657.056878,619.247172 Z" id="ºF" fill="#FFFFFF"></path>
                <polygon id="K" fill="#FFFFFF" points="54.0788532 619.247172 50.3012688 619.247172 40.2158311 606.665388 37.8102939 608.786113 37.8102939 619.247172 34.7098236 619.247172 34.7098236 592.889581 37.8102939 592.889581 37.8102939 605.82779 49.3925102 592.889581 53.2591886 592.889581 42.567912 604.758517"></polygon>
                <path d="M331.781201,597.736954 C331.781201,599.127016 332.084117,600.264593 332.689959,601.149719 C333.295801,602.034844 334.162974,602.4774 335.291503,602.4774 C336.360636,602.4774 337.198111,602.028903 337.803953,601.131897 C338.409795,600.234891 338.712712,599.127016 338.712712,597.808239 C338.712712,596.430057 338.403856,595.28357 337.786134,594.368742 C337.168413,593.453915 336.313119,592.996508 335.220228,592.996508 C334.162974,592.996508 333.325499,593.450945 332.707778,594.359832 C332.090057,595.268719 331.781201,596.394415 331.781201,597.736954 Z M335.255866,590.911425 C337.013995,590.911425 338.397908,591.558923 339.407645,592.853938 C340.417381,594.148954 340.922242,595.78849 340.922242,597.772596 C340.922242,599.72106 340.420351,601.333865 339.416554,602.611059 C338.412757,603.888253 337.037754,604.526841 335.291503,604.526841 C333.462098,604.526841 332.048488,603.888253 331.05063,602.611059 C330.052773,601.333865 329.553851,599.691358 329.553851,597.68349 C329.553851,595.735027 330.064652,594.119252 331.086268,592.836117 C332.107884,591.552982 333.497736,590.911425 335.255866,590.911425 Z M357.78191,595.152876 C355.798075,595.152876 354.090457,595.634045 352.659007,596.596396 C351.227557,597.558747 350.161409,598.853743 349.460533,600.481423 C348.759657,602.109103 348.409224,603.980313 348.409224,606.095108 C348.409224,607.675265 348.59929,609.1158 348.979426,610.416756 C349.359562,611.717711 349.929758,612.858258 350.69003,613.838431 C351.450302,614.818603 352.439236,615.578968 353.656859,616.119548 C354.874483,616.660127 356.273244,616.930413 357.853185,616.930413 C359.884538,616.930413 361.987135,616.401722 364.161039,615.344324 L364.677784,617.964044 C362.907775,619.080847 360.514141,619.639239 357.49681,619.639239 C355.512974,619.639239 353.734082,619.30955 352.160081,618.650161 C350.586079,617.990773 349.28532,617.058138 348.257765,615.852229 C347.230209,614.64632 346.44916,613.208756 345.914593,611.539493 C345.380027,609.87023 345.112747,608.013871 345.112747,605.97036 C345.112747,603.998134 345.403785,602.180388 345.985868,600.517065 C346.567952,598.853742 347.390578,597.425089 348.453771,596.23106 C349.516965,595.037032 350.844452,594.107368 352.436272,593.442039 C354.028092,592.77671 355.798075,592.44405 357.746273,592.44405 C360.704207,592.44405 363.198814,593.097489 365.230166,594.404385 L364.018488,596.917178 C362.07029,595.740971 359.991452,595.152876 357.78191,595.152876 Z" id="ºC" fill="#FFFFFF"></path>
                <g id="Group-2-Copy" transform="translate(698.230648, 116.793180)" stroke="#FFFFFF" stroke-linecap="round" stroke-width="3">
                    <path d="M0,295.024439 L21.8957346,295.024439" id="Line-Copy-19"></path>
                    <path d="M0,197.696789 L21.8957346,197.696789" id="Line-Copy-18"></path>
                    <path d="M0,100.369139 L21.8957346,100.369139" id="Line-Copy-17"></path>
                    <path d="M0,3.04148906 L21.8957346,3.04148906" id="Line-Copy-16"></path>
                </g>
                <g id="Group-2-Copy-2" transform="translate(391.690363, 116.793180)" stroke="#FFFFFF" stroke-linecap="round" stroke-width="3">
                    <path d="M0,295.024439 L21.8957346,295.024439" id="Line-Copy-19"></path>
                    <path d="M0,197.696789 L21.8957346,197.696789" id="Line-Copy-18"></path>
                    <path d="M0,100.369139 L21.8957346,100.369139" id="Line-Copy-17"></path>
                    <path d="M0,3.04148906 L21.8957346,3.04148906" id="Line-Copy-16"></path>
                </g>
                <g id="Group-2-Copy-3" transform="translate(85.150079, 116.793180)" stroke="#FFFFFF" stroke-linecap="round" stroke-width="3">
                    <path d="M0,295.024439 L21.8957346,295.024439" id="Line-Copy-19"></path>
                    <path d="M0,197.696789 L21.8957346,197.696789" id="Line-Copy-18"></path>
                    <path d="M0,100.369139 L21.8957346,100.369139" id="Line-Copy-17"></path>
                    <path d="M0,3.04148906 L21.8957346,3.04148906" id="Line-Copy-16"></path>
                </g>
                <path d="M735.738022,399.052869 L738.193452,399.052869 L738.193452,422.158681 L735.460049,422.158681 L735.460049,401.910206 C734.420218,402.589792 733.148761,403.17155 731.645639,403.655498 L731.645639,401.076172 C731.810365,401.004095 732.144959,400.859943 732.649431,400.643711 C733.153903,400.427479 733.532252,400.262733 733.784488,400.149469 C734.036724,400.036204 734.353302,399.876607 734.73423,399.670672 C735.115158,399.464737 735.449752,399.258804 735.738022,399.052869 Z M760.704133,416.428564 L758.078831,416.428564 L758.078831,422.158681 L755.484414,422.158681 L755.484414,416.428564 L745.044976,416.428564 L745.044976,414.065469 L755.190998,399.052869 L758.078831,399.052869 L758.078831,414.18903 L760.920334,414.18903 L760.704133,416.428564 Z M755.484414,402.558898 L747.762937,414.18903 L755.484414,414.18903 L755.484414,402.558898 Z" id="14" fill="#FFFFFF"></path>
                <path d="M431.944208,414.482486 L431.944208,412.212062 L439.665685,412.212062 L439.665685,414.482486 L431.944208,414.482486 Z M448.29315,399.052869 L450.74858,399.052869 L450.74858,422.158681 L448.015177,422.158681 L448.015177,401.910206 C446.975346,402.589792 445.703889,403.17155 444.200767,403.655498 L444.200767,401.076172 C444.365492,401.004095 444.700086,400.859943 445.204559,400.643711 C445.709031,400.427479 446.08738,400.262733 446.339616,400.149469 C446.591852,400.036204 446.90843,399.876607 447.289358,399.670672 C447.670286,399.464737 448.00488,399.258804 448.29315,399.052869 Z M465.537783,422.513918 C464.168501,422.513918 462.96911,422.212742 461.939575,421.610382 C460.910039,421.008021 460.083849,420.161126 459.46098,419.069669 C458.838111,417.978213 458.374827,416.722027 458.071114,415.301074 C457.767401,413.880121 457.615547,412.299592 457.615547,410.55944 C457.615547,409.128191 457.715925,407.805077 457.916685,406.590059 C458.117444,405.375042 458.428874,404.273305 458.850984,403.284816 C459.273093,402.296327 459.795575,401.457154 460.418444,400.767271 C461.041313,400.077388 461.785141,399.544539 462.649951,399.168707 C463.51476,398.792875 464.477362,398.604962 465.537783,398.604962 C466.855589,398.604962 468.02152,398.893267 469.035613,399.469886 C470.049705,400.046504 470.873321,400.867659 471.506485,401.933373 C472.13965,402.999088 472.615803,404.255274 472.934959,405.701968 C473.254115,407.148663 473.41369,408.767804 473.41369,410.55944 C473.41369,412.299592 473.26441,413.880121 472.965845,415.301074 C472.667279,416.722027 472.209143,417.978213 471.591422,419.069669 C470.9737,420.161126 470.152658,421.008021 469.12827,421.610382 C468.103882,422.212742 466.907065,422.513918 465.537783,422.513918 Z M465.537783,400.952612 C464.487657,400.952612 463.586827,401.36705 462.835266,402.195939 C462.083705,403.024828 461.520043,404.147158 461.144262,405.562963 C460.768482,406.978767 460.580595,408.613353 460.580595,410.46677 C460.580595,412.351077 460.768482,414.016553 461.144262,415.463247 C461.520043,416.909942 462.083705,418.055439 462.835266,418.899773 C463.586827,419.744108 464.487657,420.166268 465.537783,420.166268 C466.587909,420.166268 467.488739,419.744108 468.2403,418.899773 C468.991861,418.055439 469.555524,416.909942 469.931304,415.463247 C470.307084,414.016553 470.494972,412.351077 470.494972,410.46677 C470.494972,408.613353 470.307084,406.978767 469.931304,405.562963 C469.555524,404.147158 468.991861,403.024828 468.2403,402.195939 C467.488739,401.36705 466.587909,400.952612 465.537783,400.952612 Z" id="-10" fill="#FFFFFF"></path>
                <path d="M119.738735,422.158681 L119.383547,419.625691 L127.367555,410.760226 C127.902913,410.163014 128.420247,409.390769 128.919572,408.443467 C129.418896,407.496165 129.781802,406.69303 130.0083,406.034037 L130.363488,405.060998 C130.363488,403.7842 130.008304,402.793152 129.297924,402.087824 C128.587545,401.382496 127.578615,401.029837 126.271105,401.029837 C124.08849,401.029837 122.369191,401.663078 121.113158,402.92958 L120.217466,400.61282 C121.638225,399.274242 123.717856,398.604962 126.45642,398.604962 C128.556673,398.604962 130.229643,399.17385 131.475381,400.311642 C132.721119,401.449434 133.343978,402.970757 133.343978,404.875657 C133.302797,405.019812 133.241026,405.212873 133.158663,405.454847 C133.0763,405.696821 132.898708,406.167891 132.625881,406.86807 C132.353054,407.56825 132.067362,408.232381 131.768797,408.860483 C131.470232,409.488586 131.091883,410.178458 130.63374,410.930122 C130.175596,411.681785 129.709739,412.309878 129.236152,412.814419 L122.719225,419.780142 L133.421193,419.780142 L133.251321,422.158681 L119.738735,422.158681 Z M147.700779,407.93378 C148.997994,407.93378 150.197385,408.240104 151.298988,408.852761 C152.400591,409.465418 153.285978,410.335481 153.955176,411.462976 C154.624374,412.590471 154.958968,413.844083 154.958968,415.223849 C154.958968,417.324388 154.251173,419.064514 152.835562,420.44428 C151.41995,421.824045 149.553945,422.513918 147.23749,422.513918 C146.032934,422.513918 144.933921,422.31056 143.940419,421.903838 C142.946918,421.497116 142.128449,420.946248 141.48499,420.251216 C140.84153,419.556185 140.342213,418.747902 139.987023,417.826342 C139.631833,416.904782 139.454241,415.918882 139.454241,414.868612 C139.454241,413.190241 139.760523,411.68951 140.373097,410.366377 C140.98567,409.043243 142.094978,407.367471 143.701054,405.339009 C144.092277,404.844765 144.709989,404.082816 145.554208,403.05314 C146.398427,402.023464 147.149977,401.117363 147.80888,400.334809 L148.781786,399.160985 L152.349109,399.160985 L144.226114,408.860483 C145.389489,408.242678 146.547699,407.93378 147.700779,407.93378 Z M142.37296,415.162069 C142.37296,416.07848 142.545404,416.907357 142.890299,417.648723 C143.235193,418.39009 143.775691,418.995016 144.511809,419.463518 C145.247927,419.932021 146.125593,420.166268 147.144833,420.166268 C148.668545,420.166268 149.865362,419.697773 150.73532,418.760768 C151.605277,417.823763 152.040249,416.660246 152.040249,415.270184 C152.040249,413.808044 151.605277,412.605916 150.73532,411.663762 C149.865362,410.721609 148.668545,410.250539 147.144833,410.250539 C145.528462,410.250539 144.329071,410.708738 143.546624,411.625149 C142.764177,412.541561 142.37296,413.720522 142.37296,415.162069 Z M166.675023,422.513918 C165.295446,422.513918 164.067743,422.333727 162.991879,421.973341 C161.916014,421.612954 161.131005,421.195942 160.636828,420.722291 L161.501633,418.451867 C162.953278,419.594807 164.682872,420.166268 166.690466,420.166268 C168.23477,420.166268 169.462472,419.78272 170.373611,419.015611 C171.28475,418.248503 171.740313,417.175082 171.740313,415.795316 C171.740313,415.043653 171.624492,414.387244 171.392846,413.826071 C171.161201,413.264897 170.852345,412.811847 170.466269,412.466905 C170.080193,412.121964 169.586023,411.843956 168.983745,411.632872 C168.381467,411.421788 167.763755,411.272488 167.130591,411.184965 C166.497426,411.097443 165.763893,411.043386 164.92997,411.022792 C164.827016,411.022792 164.672588,411.020218 164.466681,411.015069 C164.260774,411.009921 164.106346,411.007347 164.003392,411.007347 L164.003392,408.706033 L164.77554,408.706033 C165.496215,408.695736 166.131943,408.657124 166.682745,408.590195 C167.233546,408.523266 167.78434,408.402281 168.335141,408.227236 C168.885943,408.052191 169.341505,407.820517 169.701843,407.532208 C170.06218,407.243899 170.355593,406.857776 170.582091,406.373828 C170.808589,405.889881 170.921836,405.318419 170.921836,404.659427 C170.921836,402.188204 169.506246,400.952612 166.675023,400.952612 C165.655783,400.952612 164.69833,401.101913 163.802634,401.400519 C162.906938,401.699125 162.139945,402.100692 161.501633,402.605233 L160.636828,400.350254 C162.170836,399.186721 164.379156,398.604962 167.261856,398.604962 C168.425231,398.604962 169.501079,398.818617 170.489433,399.245933 C171.477787,399.673248 172.291108,400.327082 172.92942,401.207455 C173.567732,402.087828 173.886884,403.120063 173.886884,404.30419 C173.886884,405.745736 173.531699,406.929846 172.82132,407.856554 C172.11094,408.783263 171.112306,409.447394 169.825386,409.848967 C171.266736,410.15787 172.396634,410.832298 173.215115,411.87227 C174.033596,412.912243 174.44283,414.230208 174.44283,415.826206 C174.44283,417.854668 173.717018,419.476383 172.265373,420.691401 C170.813728,421.906418 168.950297,422.513918 166.675023,422.513918 Z" id="263" fill="#FFFFFF"></path>
                <path d="M738.733955,326.402864 C737.354378,326.402864 736.126675,326.222673 735.050811,325.862286 C733.974946,325.5019 733.189937,325.084887 732.69576,324.611236 L733.560565,322.340812 C735.01221,323.483753 736.741804,324.055214 738.749398,324.055214 C740.293702,324.055214 741.521404,323.671666 742.432543,322.904557 C743.343682,322.137449 743.799245,321.064028 743.799245,319.684262 C743.799245,318.932598 743.683424,318.27619 743.451778,317.715016 C743.220133,317.153843 742.911277,316.700792 742.525201,316.355851 C742.139125,316.01091 741.644955,315.732901 741.042677,315.521818 C740.440399,315.310734 739.822687,315.161433 739.189523,315.073911 C738.556358,314.986388 737.822825,314.932331 736.988901,314.911738 C736.885948,314.911738 736.73152,314.909164 736.525613,314.904015 C736.319706,314.898867 736.165278,314.896293 736.062324,314.896293 L736.062324,312.594978 L736.834472,312.594978 C737.555147,312.584682 738.190875,312.546069 738.741677,312.479141 C739.292478,312.412212 739.843272,312.291226 740.394073,312.116182 C740.944875,311.941137 741.400437,311.709463 741.760775,311.421154 C742.121112,311.132845 742.414525,310.746722 742.641023,310.262774 C742.867521,309.778826 742.980768,309.207365 742.980768,308.548372 C742.980768,306.07715 741.565178,304.841558 738.733955,304.841558 C737.714715,304.841558 736.757262,304.990858 735.861566,305.289464 C734.96587,305.58807 734.198877,305.989638 733.560565,306.494179 L732.69576,304.2392 C734.229768,303.075666 736.438088,302.493908 739.320788,302.493908 C740.484163,302.493908 741.560011,302.707563 742.548365,303.134878 C743.536719,303.562194 744.35004,304.216028 744.988352,305.096401 C745.626664,305.976774 745.945815,307.009009 745.945815,308.193136 C745.945815,309.634682 745.590631,310.818792 744.880252,311.7455 C744.169872,312.672208 743.171238,313.336339 741.884318,313.737913 C743.325668,314.046816 744.455566,314.721243 745.274047,315.761216 C746.092528,316.801189 746.501762,318.119154 746.501762,319.715152 C746.501762,321.743613 745.77595,323.365329 744.324305,324.580346 C742.87266,325.795364 741.009229,326.402864 738.733955,326.402864 Z M752.488481,326.047627 L752.133293,323.514637 L760.117301,314.649172 C760.652659,314.05196 761.169993,313.279714 761.669318,312.332412 C762.168642,311.385111 762.531548,310.581975 762.758046,309.922983 L763.113234,308.949944 C763.113234,307.673146 762.75805,306.682098 762.04767,305.97677 C761.337291,305.271442 760.328361,304.918783 759.020851,304.918783 C756.838236,304.918783 755.118937,305.552024 753.862904,306.818525 L752.967212,304.501766 C754.387971,303.163187 756.467602,302.493908 759.206166,302.493908 C761.306419,302.493908 762.979389,303.062796 764.225127,304.200587 C765.470865,305.338379 766.093724,306.859703 766.093724,308.764603 C766.052543,308.908758 765.990772,309.101819 765.908409,309.343793 C765.826046,309.585767 765.648454,310.056837 765.375627,310.757016 C765.1028,311.457196 764.817108,312.121327 764.518543,312.749429 C764.219978,313.377531 763.841629,314.067404 763.383486,314.819067 C762.925342,315.570731 762.459485,316.198824 761.985898,316.703365 L755.468971,323.669088 L766.170939,323.669088 L766.001067,326.047627 L752.488481,326.047627 Z" id="32" fill="#FFFFFF"></path>
                <path d="M440.221632,326.402864 C438.85235,326.402864 437.652959,326.101688 436.623423,325.499327 C435.593888,324.896967 434.767698,324.050071 434.144829,322.958615 C433.52196,321.867158 433.058676,320.610973 432.754963,319.19002 C432.45125,317.769067 432.299396,316.188538 432.299396,314.448386 C432.299396,313.017136 432.399774,311.694023 432.600533,310.479005 C432.801293,309.263987 433.112723,308.162251 433.534832,307.173762 C433.956942,306.185273 434.479423,305.3461 435.102292,304.656217 C435.725161,303.966334 436.468989,303.433485 437.333799,303.057653 C438.198609,302.681821 439.16121,302.493908 440.221632,302.493908 C441.539437,302.493908 442.705369,302.782213 443.719461,303.358832 C444.733554,303.93545 445.55717,304.756604 446.190334,305.822319 C446.823498,306.888034 447.299651,308.144219 447.618807,309.590914 C447.937963,311.037609 448.097539,312.65675 448.097539,314.448386 C448.097539,316.188538 447.948259,317.769067 447.649693,319.19002 C447.351128,320.610973 446.892992,321.867158 446.27527,322.958615 C445.657549,324.050071 444.836507,324.896967 443.812119,325.499327 C442.787731,326.101688 441.590914,326.402864 440.221632,326.402864 Z M440.221632,304.841558 C439.171506,304.841558 438.270676,305.255996 437.519115,306.084885 C436.767554,306.913774 436.203892,308.036104 435.828111,309.451908 C435.452331,310.867713 435.264443,312.502299 435.264443,314.355716 C435.264443,316.240022 435.452331,317.905498 435.828111,319.352193 C436.203892,320.798888 436.767554,321.944385 437.519115,322.788719 C438.270676,323.633053 439.171506,324.055214 440.221632,324.055214 C441.271758,324.055214 442.172588,323.633053 442.924149,322.788719 C443.67571,321.944385 444.239372,320.798888 444.615153,319.352193 C444.990933,317.905498 445.17882,316.240022 445.17882,314.355716 C445.17882,312.502299 444.990933,310.867713 444.615153,309.451908 C444.239372,308.036104 443.67571,306.913774 442.924149,306.084885 C442.172588,305.255996 441.271758,304.841558 440.221632,304.841558 Z" id="0" fill="#FFFFFF"></path>
                <path d="M119.738735,326.047627 L119.383547,323.514637 L127.367555,314.649172 C127.902913,314.05196 128.420247,313.279714 128.919572,312.332412 C129.418896,311.385111 129.781802,310.581975 130.0083,309.922983 L130.363488,308.949944 C130.363488,307.673146 130.008304,306.682098 129.297924,305.97677 C128.587545,305.271442 127.578615,304.918783 126.271105,304.918783 C124.08849,304.918783 122.369191,305.552024 121.113158,306.818525 L120.217466,304.501766 C121.638225,303.163187 123.717856,302.493908 126.45642,302.493908 C128.556673,302.493908 130.229643,303.062796 131.475381,304.200587 C132.721119,305.338379 133.343978,306.859703 133.343978,308.764603 C133.302797,308.908758 133.241026,309.101819 133.158663,309.343793 C133.0763,309.585767 132.898708,310.056837 132.625881,310.757016 C132.353054,311.457196 132.067362,312.121327 131.768797,312.749429 C131.470232,313.377531 131.091883,314.067404 130.63374,314.819067 C130.175596,315.570731 129.709739,316.198824 129.236152,316.703365 L122.719225,323.669088 L133.421193,323.669088 L133.251321,326.047627 L119.738735,326.047627 Z M141.894228,326.047627 L149.831907,305.3358 L139.407912,305.3358 L139.577785,302.941815 L152.966827,302.941815 L152.966827,305.042343 L144.704846,326.047627 L141.894228,326.047627 Z M164.404909,326.402864 C163.025331,326.402864 161.797629,326.222673 160.721764,325.862286 C159.6459,325.5019 158.860891,325.084887 158.366714,324.611236 L159.231519,322.340812 C160.683164,323.483753 162.412758,324.055214 164.420352,324.055214 C165.964655,324.055214 167.192358,323.671666 168.103497,322.904557 C169.014636,322.137449 169.470198,321.064028 169.470198,319.684262 C169.470198,318.932598 169.354377,318.27619 169.122732,317.715016 C168.891086,317.153843 168.58223,316.700792 168.196155,316.355851 C167.810079,316.01091 167.315909,315.732901 166.713631,315.521818 C166.111353,315.310734 165.493641,315.161433 164.860476,315.073911 C164.227312,314.986388 163.493779,314.932331 162.659855,314.911738 C162.556902,314.911738 162.402474,314.909164 162.196566,314.904015 C161.990659,314.898867 161.836231,314.896293 161.733278,314.896293 L161.733278,312.594978 L162.505426,312.594978 C163.2261,312.584682 163.861829,312.546069 164.412631,312.479141 C164.963432,312.412212 165.514225,312.291226 166.065027,312.116182 C166.615828,311.941137 167.071391,311.709463 167.431728,311.421154 C167.792066,311.132845 168.085479,310.746722 168.311977,310.262774 C168.538474,309.778826 168.651722,309.207365 168.651722,308.548372 C168.651722,306.07715 167.236132,304.841558 164.404909,304.841558 C163.385669,304.841558 162.428215,304.990858 161.532519,305.289464 C160.636823,305.58807 159.869831,305.989638 159.231519,306.494179 L158.366714,304.2392 C159.900721,303.075666 162.109042,302.493908 164.991741,302.493908 C166.155116,302.493908 167.230965,302.707563 168.219319,303.134878 C169.207673,303.562194 170.020994,304.216028 170.659306,305.096401 C171.297618,305.976774 171.616769,307.009009 171.616769,308.193136 C171.616769,309.634682 171.261585,310.818792 170.551205,311.7455 C169.840826,312.672208 168.842191,313.336339 167.555272,313.737913 C168.996622,314.046816 170.12652,314.721243 170.945001,315.761216 C171.763481,316.801189 172.172715,318.119154 172.172715,319.715152 C172.172715,321.743613 171.446904,323.365329 169.995259,324.580346 C168.543614,325.795364 166.680182,326.402864 164.404909,326.402864 Z" id="273" fill="#FFFFFF"></path>
                <path d="M746.578977,205.614165 L746.362775,208.147155 L736.92713,208.147155 C736.824176,211.143512 736.746962,213.568363 736.695485,215.421779 C737.85886,214.680413 739.120022,214.309735 740.479009,214.309735 C741.621794,214.309735 742.643592,214.4925 743.544436,214.858034 C744.445279,215.223569 745.181386,215.725529 745.752778,216.363928 C746.324171,217.002327 746.759143,217.746257 747.057708,218.595739 C747.356274,219.445222 747.505554,220.364194 747.505554,221.352683 C747.505554,223.690047 746.756578,225.561455 745.258604,226.966963 C743.76063,228.37247 741.724754,229.075214 739.150915,229.075214 C736.566781,229.075214 734.497446,228.369896 732.942847,226.95924 L733.946639,224.781487 C735.470352,225.975911 737.235979,226.573114 739.243573,226.573114 C740.932011,226.573114 742.26524,226.094322 743.243298,225.136723 C744.221357,224.179124 744.710379,222.928087 744.710379,221.383573 C744.710379,220.003807 744.298571,218.884051 743.474943,218.024272 C742.651314,217.164493 741.477661,216.734609 739.953949,216.734609 C738.430236,216.734609 737.205107,217.244291 736.278525,218.263671 L734.131955,217.970214 L734.73423,205.614165 L746.578977,205.614165 Z M761.491724,229.075214 C760.122442,229.075214 758.923051,228.774038 757.893515,228.171678 C756.86398,227.569317 756.03779,226.722421 755.414921,225.630965 C754.792052,224.539508 754.328768,223.283323 754.025055,221.86237 C753.721342,220.441417 753.569488,218.860888 753.569488,217.120736 C753.569488,215.689486 753.669866,214.366373 753.870625,213.151355 C754.071385,211.936338 754.382815,210.834601 754.804924,209.846112 C755.227034,208.857623 755.749515,208.01845 756.372384,207.328567 C756.995253,206.638684 757.739081,206.105835 758.603891,205.730003 C759.468701,205.354171 760.431302,205.166258 761.491724,205.166258 C762.809529,205.166258 763.975461,205.454563 764.989553,206.031182 C766.003646,206.6078 766.827262,207.428954 767.460426,208.494669 C768.09359,209.560384 768.569743,210.816569 768.888899,212.263264 C769.208055,213.709959 769.367631,215.3291 769.367631,217.120736 C769.367631,218.860888 769.21835,220.441417 768.919785,221.86237 C768.62122,223.283323 768.163083,224.539508 767.545362,225.630965 C766.927641,226.722421 766.106599,227.569317 765.082211,228.171678 C764.057823,228.774038 762.861006,229.075214 761.491724,229.075214 Z M761.491724,207.513908 C760.441598,207.513908 759.540767,207.928346 758.789207,208.757235 C758.037646,209.586124 757.473983,210.708454 757.098203,212.124259 C756.722423,213.540063 756.534535,215.174649 756.534535,217.028066 C756.534535,218.912373 756.722423,220.577848 757.098203,222.024543 C757.473983,223.471238 758.037646,224.616735 758.789207,225.461069 C759.540767,226.305404 760.441598,226.727564 761.491724,226.727564 C762.54185,226.727564 763.44268,226.305404 764.194241,225.461069 C764.945802,224.616735 765.509464,223.471238 765.885244,222.024543 C766.261025,220.577848 766.448912,218.912373 766.448912,217.028066 C766.448912,215.174649 766.261025,213.540063 765.885244,212.124259 C765.509464,210.708454 764.945802,209.586124 764.194241,208.757235 C763.44268,207.928346 762.54185,207.513908 761.491724,207.513908 Z" id="50" fill="#FFFFFF"></path>
                <path d="M435.279886,205.614165 L437.735316,205.614165 L437.735316,228.719977 L435.001913,228.719977 L435.001913,208.471501 C433.962082,209.151088 432.690625,209.732846 431.187503,210.216793 L431.187503,207.637468 C431.352229,207.565391 431.686823,207.421238 432.191295,207.205006 C432.695768,206.988774 433.074116,206.824029 433.326352,206.710764 C433.578589,206.5975 433.895166,206.437903 434.276094,206.231968 C434.657022,206.026032 434.991616,205.8201 435.279886,205.614165 Z M452.52452,229.075214 C451.155237,229.075214 449.955847,228.774038 448.926311,228.171678 C447.896776,227.569317 447.070586,226.722421 446.447717,225.630965 C445.824848,224.539508 445.361564,223.283323 445.057851,221.86237 C444.754138,220.441417 444.602284,218.860888 444.602284,217.120736 C444.602284,215.689486 444.702662,214.366373 444.903421,213.151355 C445.104181,211.936338 445.41561,210.834601 445.83772,209.846112 C446.25983,208.857623 446.782311,208.01845 447.40518,207.328567 C448.028049,206.638684 448.771877,206.105835 449.636687,205.730003 C450.501497,205.354171 451.464098,205.166258 452.52452,205.166258 C453.842325,205.166258 455.008256,205.454563 456.022349,206.031182 C457.036441,206.6078 457.860057,207.428954 458.493222,208.494669 C459.126386,209.560384 459.602539,210.816569 459.921695,212.263264 C460.240851,213.709959 460.400427,215.3291 460.400427,217.120736 C460.400427,218.860888 460.251146,220.441417 459.952581,221.86237 C459.654016,223.283323 459.195879,224.539508 458.578158,225.630965 C457.960437,226.722421 457.139394,227.569317 456.115007,228.171678 C455.090619,228.774038 453.893802,229.075214 452.52452,229.075214 Z M452.52452,207.513908 C451.474393,207.513908 450.573563,207.928346 449.822002,208.757235 C449.070442,209.586124 448.506779,210.708454 448.130999,212.124259 C447.755218,213.540063 447.567331,215.174649 447.567331,217.028066 C447.567331,218.912373 447.755218,220.577848 448.130999,222.024543 C448.506779,223.471238 449.070442,224.616735 449.822002,225.461069 C450.573563,226.305404 451.474393,226.727564 452.52452,226.727564 C453.574646,226.727564 454.475476,226.305404 455.227037,225.461069 C455.978598,224.616735 456.54226,223.471238 456.91804,222.024543 C457.293821,220.577848 457.481708,218.912373 457.481708,217.028066 C457.481708,215.174649 457.293821,213.540063 456.91804,212.124259 C456.54226,210.708454 455.978598,209.586124 455.227037,208.757235 C454.475476,207.928346 453.574646,207.513908 452.52452,207.513908 Z" id="10" fill="#FFFFFF"></path>
                <path d="M119.738735,228.719977 L119.383547,226.186987 L127.367555,217.321522 C127.902913,216.72431 128.420247,215.952064 128.919572,215.004763 C129.418896,214.057461 129.781802,213.254326 130.0083,212.595333 L130.363488,211.622294 C130.363488,210.345496 130.008304,209.354448 129.297924,208.64912 C128.587545,207.943792 127.578615,207.591133 126.271105,207.591133 C124.08849,207.591133 122.369191,208.224374 121.113158,209.490876 L120.217466,207.174116 C121.638225,205.835538 123.717856,205.166258 126.45642,205.166258 C128.556673,205.166258 130.229643,205.735146 131.475381,206.872938 C132.721119,208.010729 133.343978,209.532053 133.343978,211.436953 C133.302797,211.581108 133.241026,211.774169 133.158663,212.016143 C133.0763,212.258117 132.898708,212.729187 132.625881,213.429366 C132.353054,214.129546 132.067362,214.793677 131.768797,215.421779 C131.470232,216.049882 131.091883,216.739754 130.63374,217.491417 C130.175596,218.243081 129.709739,218.871174 129.236152,219.375715 L122.719225,226.341438 L133.421193,226.341438 L133.251321,228.719977 L119.738735,228.719977 Z M147.036732,229.075214 C145.636564,229.075214 144.372828,228.840966 143.245487,228.372463 C142.118145,227.903961 141.204446,227.185773 140.504362,226.217877 C139.804278,225.249982 139.454241,224.10191 139.454241,222.773629 C139.454241,221.301192 139.876344,220.019265 140.720563,218.927808 C141.564782,217.836352 142.743583,217.043513 144.257,216.549269 C141.374301,215.52989 139.932973,213.676501 139.932973,210.989047 C139.932973,209.16652 140.591865,207.74044 141.909671,206.710764 C143.227476,205.681089 144.93648,205.166258 147.036732,205.166258 C149.126689,205.166258 150.82025,205.681089 152.117464,206.710764 C153.414679,207.74044 154.063277,209.16652 154.063277,210.989047 C154.063277,212.348219 153.71324,213.491142 153.013156,214.41785 C152.313072,215.344559 151.335027,216.055024 150.078994,216.549269 C151.468867,217.043513 152.560158,217.836352 153.352901,218.927808 C154.145643,220.019265 154.542008,221.301192 154.542008,222.773629 C154.542008,224.750606 153.829066,226.295097 152.403159,227.407147 C150.977252,228.519197 149.188461,229.075214 147.036732,229.075214 Z M147.036732,217.862099 C145.564496,218.201892 144.385696,218.770779 143.500295,219.568778 C142.614895,220.366777 142.172201,221.37327 142.172201,222.588288 C142.172201,223.854789 142.630338,224.861282 143.546624,225.607797 C144.462911,226.354312 145.626268,226.727564 147.036732,226.727564 C148.447196,226.727564 149.597684,226.354312 150.488232,225.607797 C151.378781,224.861282 151.824048,223.854789 151.824048,222.588288 C151.824048,221.362973 151.39165,220.351332 150.52684,219.553333 C149.66203,218.755334 148.498672,218.191595 147.036732,217.862099 Z M147.036732,207.513908 C145.82188,207.513908 144.789786,207.817657 143.940419,208.425166 C143.091053,209.032675 142.666376,209.8667 142.666376,210.927266 C142.666376,213.357301 144.123147,214.896644 147.036732,215.54534 C149.909136,214.896644 151.345317,213.357301 151.345317,210.927266 C151.345317,209.8667 150.928361,209.032675 150.094437,208.425166 C149.260513,207.817657 148.241289,207.513908 147.036732,207.513908 Z M166.412493,229.075214 C165.032916,229.075214 163.805213,228.895023 162.729348,228.534637 C161.653484,228.17425 160.868475,227.757237 160.374298,227.283587 L161.239103,225.013162 C162.690748,226.156103 164.420342,226.727564 166.427936,226.727564 C167.972239,226.727564 169.199942,226.344016 170.111081,225.576907 C171.02222,224.809799 171.477782,223.736378 171.477782,222.356612 C171.477782,221.604948 171.361961,220.94854 171.130316,220.387367 C170.898671,219.826193 170.589815,219.373143 170.203739,219.028201 C169.817663,218.68326 169.323493,218.405251 168.721215,218.194168 C168.118937,217.983084 167.501225,217.833783 166.86806,217.746261 C166.234896,217.658739 165.501363,217.604681 164.667439,217.584088 C164.564486,217.584088 164.410058,217.581514 164.204151,217.576365 C163.998244,217.571217 163.843816,217.568643 163.740862,217.568643 L163.740862,215.267329 L164.51301,215.267329 C165.233685,215.257032 165.869413,215.21842 166.420215,215.151491 C166.971016,215.084562 167.521809,214.963577 168.072611,214.788532 C168.623412,214.613487 169.078975,214.381813 169.439312,214.093504 C169.79965,213.805195 170.093063,213.419072 170.319561,212.935124 C170.546059,212.451177 170.659306,211.879715 170.659306,211.220722 C170.659306,208.7495 169.243716,207.513908 166.412493,207.513908 C165.393253,207.513908 164.435799,207.663208 163.540104,207.961814 C162.644408,208.26042 161.877415,208.661988 161.239103,209.166529 L160.374298,206.91155 C161.908306,205.748016 164.116626,205.166258 166.999325,205.166258 C168.162701,205.166258 169.238549,205.379913 170.226903,205.807228 C171.215257,206.234544 172.028578,206.888378 172.66689,207.768751 C173.305202,208.649124 173.624353,209.681359 173.624353,210.865486 C173.624353,212.307032 173.269169,213.491142 172.558789,214.41785 C171.84841,215.344559 170.849775,216.00869 169.562856,216.410263 C171.004206,216.719166 172.134104,217.393594 172.952585,218.433566 C173.771065,219.473539 174.1803,220.791504 174.1803,222.387502 C174.1803,224.415964 173.454488,226.037679 172.002843,227.252696 C170.551198,228.467714 168.687767,229.075214 166.412493,229.075214 Z" id="283" fill="#FFFFFF"></path>
                <path d="M737.313203,124.673726 L735.969666,124.673726 C735.969666,124.014733 736.121521,123.257933 736.425234,122.403301 C736.728947,121.54867 737.097,120.712071 737.529405,119.893479 C737.96181,119.074887 738.391634,118.264029 738.818892,117.460882 C739.246149,116.657735 739.611628,115.864896 739.915341,115.082342 C740.219054,114.299789 740.370909,113.630509 740.370909,113.074484 C740.360613,112.096292 740.04661,111.370382 739.428888,110.896731 C738.811167,110.42308 737.966961,110.186258 736.896244,110.186258 C735.568143,110.186258 734.234914,110.60327 732.896518,111.437308 L732.201585,109.352224 C733.467914,108.353439 735.17177,107.854053 737.313203,107.854053 C738.981051,107.854053 740.327148,108.294233 741.351536,109.174606 C742.375924,110.054979 742.88811,111.282849 742.88811,112.858253 C742.88811,113.651104 742.772289,114.423349 742.540644,115.175013 C742.308998,115.926676 741.987273,116.660309 741.575459,117.375934 C741.163645,118.091559 740.73382,118.78658 740.285972,119.461017 C739.838124,120.135455 739.33366,120.946313 738.772563,121.893614 C738.211466,122.840916 737.725018,123.767611 737.313203,124.673726 Z M734.811445,129.53892 C734.811445,128.993192 734.994185,128.516974 735.35967,128.110252 C735.725155,127.70353 736.227046,127.500172 736.865358,127.500172 C737.513965,127.500172 738.01843,127.700956 738.378767,128.102529 C738.739105,128.504103 738.919271,128.982895 738.919271,129.53892 C738.919271,130.094945 738.739105,130.573737 738.378767,130.975311 C738.01843,131.376884 737.513965,131.577668 736.865358,131.577668 C736.227046,131.577668 735.725155,131.37431 735.35967,130.967588 C734.994185,130.560866 734.811445,130.084648 734.811445,129.53892 Z" id="?-copy" fill="#FFFFFF"></path>
                <path d="M436.855068,124.673726 L435.511531,124.673726 C435.511531,124.014733 435.663385,123.257933 435.967098,122.403301 C436.270811,121.54867 436.638864,120.712071 437.071269,119.893479 C437.503674,119.074887 437.933499,118.264029 438.360756,117.460882 C438.788013,116.657735 439.153493,115.864896 439.457206,115.082342 C439.760919,114.299789 439.912773,113.630509 439.912773,113.074484 C439.902477,112.096292 439.588474,111.370382 438.970752,110.896731 C438.353031,110.42308 437.508825,110.186258 436.438108,110.186258 C435.110007,110.186258 433.776779,110.60327 432.438382,111.437308 L431.743449,109.352224 C433.009778,108.353439 434.713634,107.854053 436.855068,107.854053 C438.522915,107.854053 439.869013,108.294233 440.8934,109.174606 C441.917788,110.054979 442.429974,111.282849 442.429974,112.858253 C442.429974,113.651104 442.314153,114.423349 442.082508,115.175013 C441.850862,115.926676 441.529137,116.660309 441.117323,117.375934 C440.705509,118.091559 440.275684,118.78658 439.827837,119.461017 C439.379989,120.135455 438.875524,120.946313 438.314427,121.893614 C437.75333,122.840916 437.266882,123.767611 436.855068,124.673726 Z M434.353309,129.53892 C434.353309,128.993192 434.536049,128.516974 434.901534,128.110252 C435.267019,127.70353 435.76891,127.500172 436.407222,127.500172 C437.055829,127.500172 437.560294,127.700956 437.920632,128.102529 C438.280969,128.504103 438.461135,128.982895 438.461135,129.53892 C438.461135,130.094945 438.280969,130.573737 437.920632,130.975311 C437.560294,131.376884 437.055829,131.577668 436.407222,131.577668 C435.76891,131.577668 435.267019,131.37431 434.901534,130.967588 C434.536049,130.560866 434.353309,130.084648 434.353309,129.53892 Z" id="?-copy-2" fill="#FFFFFF"></path>
                <path d="M119.738735,131.392327 L119.383547,128.859337 L127.367555,119.993872 C127.902913,119.39666 128.420247,118.624414 128.919572,117.677113 C129.418896,116.729811 129.781802,115.926676 130.0083,115.267683 L130.363488,114.294644 C130.363488,113.017846 130.008304,112.026798 129.297924,111.32147 C128.587545,110.616142 127.578615,110.263483 126.271105,110.263483 C124.08849,110.263483 122.369191,110.896724 121.113158,112.163226 L120.217466,109.846466 C121.638225,108.507888 123.717856,107.838608 126.45642,107.838608 C128.556673,107.838608 130.229643,108.407496 131.475381,109.545288 C132.721119,110.68308 133.343978,112.204403 133.343978,114.109303 C133.302797,114.253458 133.241026,114.446519 133.158663,114.688493 C133.0763,114.930467 132.898708,115.401537 132.625881,116.101716 C132.353054,116.801896 132.067362,117.466027 131.768797,118.094129 C131.470232,118.722232 131.091883,119.412104 130.63374,120.163768 C130.175596,120.915431 129.709739,121.543524 129.236152,122.048065 L122.719225,129.013788 L133.421193,129.013788 L133.251321,131.392327 L119.738735,131.392327 Z M146.449901,122.156181 C145.142391,122.156181 143.940426,121.87045 142.843971,121.29898 C141.747516,120.727509 140.864702,119.901207 140.195504,118.820047 C139.526306,117.738887 139.191712,116.508443 139.191712,115.128677 C139.191712,113.028139 139.912376,111.288012 141.353726,109.908247 C142.795075,108.528481 144.679097,107.838608 147.005847,107.838608 C148.210404,107.838608 149.304269,108.03167 150.287475,108.417798 C151.270682,108.803927 152.078855,109.334202 152.712019,110.00864 C153.345184,110.683077 153.834206,111.470768 154.1791,112.371734 C154.523994,113.2727 154.696439,114.248304 154.696439,115.298573 C154.696439,116.77101 154.444207,118.10442 153.939734,119.298844 C153.435262,120.493268 152.565317,121.929645 151.329875,123.608016 C150.887174,124.194932 150.148494,125.137071 149.113811,126.434463 C148.079127,127.731854 147.155133,128.879926 146.3418,129.878711 L145.121807,131.392327 L141.724357,131.392327 L149.924566,121.229477 C148.761191,121.847282 147.602981,122.156181 146.449901,122.156181 Z M151.77772,115.005117 C151.77772,113.594461 151.378781,112.438667 150.580891,111.537701 C149.783001,110.636734 148.622218,110.186258 147.098505,110.186258 C145.564497,110.186258 144.349663,110.657327 143.453968,111.599481 C142.558272,112.541634 142.11043,113.702577 142.11043,115.082342 C142.11043,116.523889 142.542829,117.677108 143.407639,118.542036 C144.272449,119.406964 145.471839,119.839421 147.005847,119.839421 C148.632513,119.839421 149.834478,119.391519 150.611777,118.495701 C151.389077,117.599883 151.77772,116.436367 151.77772,115.005117 Z M166.149965,131.747564 C164.770388,131.747564 163.542685,131.567373 162.46682,131.206987 C161.390956,130.8466 160.605947,130.429588 160.11177,129.955937 L160.976575,127.685513 C162.42822,128.828453 164.157814,129.399914 166.165408,129.399914 C167.709711,129.399914 168.937414,129.016366 169.848553,128.249257 C170.759692,127.482149 171.215255,126.408728 171.215255,125.028962 C171.215255,124.277299 171.099434,123.62089 170.867788,123.059717 C170.636143,122.498543 170.327287,122.045493 169.941211,121.700551 C169.555135,121.35561 169.060965,121.077601 168.458687,120.866518 C167.856409,120.655434 167.238697,120.506134 166.605532,120.418611 C165.972368,120.331089 165.238835,120.277031 164.404911,120.256438 C164.301958,120.256438 164.14753,120.253864 163.941623,120.248715 C163.735716,120.243567 163.581288,120.240993 163.478334,120.240993 L163.478334,117.939679 L164.250482,117.939679 C164.971157,117.929382 165.606885,117.89077 166.157687,117.823841 C166.708488,117.756912 167.259281,117.635927 167.810083,117.460882 C168.360884,117.285837 168.816447,117.054163 169.176784,116.765854 C169.537122,116.477545 169.830535,116.091422 170.057033,115.607474 C170.283531,115.123527 170.396778,114.552065 170.396778,113.893073 C170.396778,111.42185 168.981188,110.186258 166.149965,110.186258 C165.130725,110.186258 164.173271,110.335559 163.277576,110.634165 C162.38188,110.932771 161.614887,111.334338 160.976575,111.838879 L160.11177,109.5839 C161.645778,108.420367 163.854098,107.838608 166.736798,107.838608 C167.900173,107.838608 168.976021,108.052263 169.964375,108.479578 C170.952729,108.906894 171.76605,109.560728 172.404362,110.441101 C173.042674,111.321474 173.361825,112.353709 173.361825,113.537836 C173.361825,114.979382 173.006641,116.163492 172.296261,117.0902 C171.585882,118.016909 170.587248,118.68104 169.300328,119.082613 C170.741678,119.391516 171.871576,120.065944 172.690057,121.105916 C173.508538,122.145889 173.917772,123.463854 173.917772,125.059852 C173.917772,127.088314 173.19196,128.710029 171.740315,129.925047 C170.28867,131.140064 168.425239,131.747564 166.149965,131.747564 Z" id="293" fill="#FFFFFF"></path>
                <path d="M58.1453453,497.088043 C68.4299847,502.596314 75.4186414,513.391635 75.4186414,525.807623 C75.4186414,543.817501 60.7140599,558.417391 42.5750395,558.417391 C24.436019,558.417391 9.7314376,543.817501 9.7314376,525.807623 C9.7314376,513.887582 16.1729319,503.461321 25.7883096,497.773188 L25.7883096,216.554021 L58.1453401,216.554021 L58.1453401,497.088023 Z" id="Combined-Shape" fill="#FA4359"></path>
                <path d="M365.902059,497.088043 C376.186699,502.596314 383.175355,513.391635 383.175355,525.807623 C383.175355,543.817501 368.470774,558.417391 350.331754,558.417391 C332.192733,558.417391 317.488152,543.817501 317.488152,525.807623 C317.488152,513.887582 323.929646,503.461321 333.545024,497.773188 L333.545024,216.554021 L365.902054,216.554021 L365.902054,497.088023 Z" id="Combined-Shape" fill="#FA4359"></path>
                <path d="M672.442344,497.088043 C682.726983,502.596314 689.71564,513.391635 689.71564,525.807623 C689.71564,543.817501 675.011058,558.417391 656.872038,558.417391 C638.733017,558.417391 624.028436,543.817501 624.028436,525.807623 C624.028436,513.887582 630.46993,503.461321 640.085308,497.773188 L640.085308,216.554021 L672.442339,216.554021 L672.442339,497.088023 Z" id="Combined-Shape" fill="#FA4359"></path>
                <path d="M66.2499186,493.097409 L65.6469213,492.647508 L65.6469213,25.1800957 C65.6469213,12.10194 55.0449813,1.5 41.9668256,1.5 C28.8886698,1.5 18.2867299,12.10194 18.2867299,25.1800957 L18.2867299,492.647506 L17.6837325,493.097408 C7.56849021,500.644472 1.5,512.444107 1.5,525.24725 C1.5,547.420841 19.5865367,565.406827 41.9182491,565.433512 C41.9425333,565.433553 41.9425333,565.433553 41.9668256,565.433561 C41.9911191,565.433553 41.9911191,565.433553 42.01662,565.43351 C64.3471152,565.406825 82.4336493,547.42084 82.4336493,525.24725 C82.4336493,512.444107 76.3651598,500.644473 66.2499186,493.097409 Z" id="Combined-Shape" stroke="#FFFFFF" stroke-width="3"></path>
                <path d="M374.006631,493.097426 L373.403633,492.647524 L373.403633,25.1800948 C373.403633,12.1019396 362.801694,1.5 349.723539,1.5 C336.645383,1.5 326.043444,12.1019396 326.043444,25.1800948 L326.043444,492.647524 L325.440447,493.097426 C315.325204,500.64449 309.256714,512.444126 309.256714,525.247269 C309.256714,547.439285 327.372085,565.433561 349.723539,565.433561 C372.074993,565.433561 390.190363,547.439285 390.190363,525.247269 C390.190363,512.444126 384.121873,500.64449 374.006631,493.097426 Z" id="Combined-Shape-Copy-2" stroke="#FFFFFF" stroke-width="3"></path>
                <path d="M680.546915,493.097426 L679.943918,492.647524 L679.943918,25.1800948 C679.943918,12.1019396 669.341978,1.5 656.263823,1.5 C643.185668,1.5 632.583728,12.1019396 632.583728,25.1800948 L632.583728,492.647524 L631.980731,493.097426 C621.865489,500.64449 615.796998,512.444126 615.796998,525.247269 C615.796998,547.439285 633.912369,565.433561 656.263823,565.433561 C678.615277,565.433561 696.730648,547.439285 696.730648,525.247269 C696.730648,512.444126 690.662157,500.64449 680.546915,493.097426 Z" id="Combined-Shape-Copy-3" stroke="#FFFFFF" stroke-width="3"></path>
            </g>
        </g>
    </g>
</svg>